<svg width="31" height="31" fill="none" xmlns="http://www.w3.org/2000/svg"><g clip-path="url(#clip0)" fill="#FF8A00"><path d="M13.338 26.67c-.66-.476-1.046-.96-1.18-1.477-.5-1.933-2.115-3.344-3.927-3.344-1.81 0-3.486 1.411-3.986 3.345-.135.516-.52 1-1.181 1.478-.804.582-1.172 1.483-.96 2.352.255 1.045 1.415 1.974 3.003 1.974.671 0 1.308-.172 1.842-.497.355-.217.837-.332 1.28-.332.444 0 .865.114 1.224.331.536.327 1.17.5 1.835.5 1.586 0 2.754-.925 3.01-1.976.212-.869-.156-1.77-.96-2.353zM3.631 21.85c0-1.051-.83-2.724-1.815-2.724S0 20.799 0 21.849c0 1.001.815 1.816 1.816 1.816 1 0 1.815-.815 1.815-1.816zM14.586 19.126c-.985 0-1.815 1.673-1.815 2.723 0 1.001.814 1.816 1.815 1.816a1.818 1.818 0 001.816-1.816c0-1.05-.83-2.723-1.816-2.723zM9.14 18.218c0 1 .814 1.816 1.815 1.816 1 0 1.816-.815 1.816-1.816 0-1.05-.831-2.724-1.816-2.724-.985 0-1.816 1.673-1.816 2.724zM5.447 20.034c1.001 0 1.816-.815 1.816-1.816 0-1.05-.83-2.724-1.816-2.724-.985 0-1.816 1.673-1.816 2.724 0 1 .815 1.816 1.816 1.816zM27.924 11.177c-.66-.477-1.046-1.021-1.18-1.539-.5-1.933-2.175-3.283-3.987-3.283-1.811 0-3.426 1.35-3.926 3.284-.134.516-.52 1.06-1.18 1.539-.805.582-1.173 1.483-.96 2.352.254 1.045 1.415 1.974 3.002 1.974.671 0 1.309-.172 1.842-.497a2.33 2.33 0 011.22-.333c.444 0 .925.115 1.285.332.535.327 1.169.5 1.834.5 1.586 0 2.754-.925 3.01-1.976.212-.87-.156-1.77-.96-2.353zM18.218 6.355c0-1.05-.83-2.724-1.816-2.724-.985 0-1.816 1.673-1.816 2.724 0 1.001.815 1.816 1.816 1.816a1.818 1.818 0 001.816-1.816zM29.173 3.631c-.985 0-1.816 1.673-1.816 2.724 0 1.001.815 1.816 1.816 1.816a1.818 1.818 0 001.816-1.816c0-1.05-.831-2.724-1.816-2.724zM23.726 2.724c0 1 .814 1.815 1.815 1.815s1.816-.814 1.816-1.815c0-1.05-.83-2.724-1.816-2.724-.985 0-1.815 1.673-1.815 2.724zM18.218 2.724c0 1 .815 1.815 1.816 1.815a1.818 1.818 0 001.815-1.815c0-1.05-.83-2.724-1.815-2.724s-1.816 1.673-1.816 2.724z"/></g><defs><clipPath id="clip0"><path fill="#fff" d="M0 0h31v31H0z"/></clipPath></defs></svg>